<?xml version="1.0" encoding="UTF-8"?>
<svg width="130px" height="130px" viewBox="0 0 130 130" version="1.1" xmlns="http://www.w3.org/2000/svg" xmlns:xlink="http://www.w3.org/1999/xlink"  fill="white">
    <g id="Page-1" stroke="none" stroke-width="1" fill="none" fill-rule="evenodd">
        <g id="Group" transform="translate(1.000000, 1.000000)" fill="white">
            <path d="M64,128 C28.653776,128 0,99.346224 0,64 C0,28.653776 28.653776,0 64,0 C99.346224,0 128,28.653776 128,64 C128,99.346224 99.346224,128 64,128 Z M36,24 C34.8954305,24 34,24.8954305 34,26 L34,102 C34,103.104569 34.8954305,104 36,104 L84.0040344,104 L88.9840035,99.0160094 C88.9946675,99.0053368 89.0054519,98.9947852 89.0163546,98.9843567 L94,94.2174717 L94,26 C94,24.8954305 93.1045695,24 92,24 L36,24 Z M70.5,35.5 L82,35.5 L70.5,35.5 Z M70.5,40.5 L84,40.5 L70.5,40.5 Z M44.5,59.5 L62,59.5 L44.5,59.5 Z M44.5,64.5 L57,64.5 L44.5,64.5 Z M81,79.5 L84,79.5 L81,79.5 Z M62.5,64.5 L84,64.5 L62.5,64.5 Z M44.5,69.5 L84,69.5 L44.5,69.5 Z M44.5,74.5 L84,74.5 L44.5,74.5 Z M44.5,79.5 L77.25,79.5 L44.5,79.5 Z M84,104 L84,94 L84,104 Z M84,94 L90.5,94 L84,94 Z" id="Combined-Shape" stroke="white" stroke-width="2" stroke-linejoin="round"></path>
            <text id="CV" font-family="Calibri" font-size="17" font-weight="normal">
                <tspan x="43" y="44">CV</tspan>
            </text>
        </g>
    </g>
</svg>
